<svg enable-background="new 0 0 359.9 122.7" viewBox="0 0 359.9 122.7" xmlns="http://www.w3.org/2000/svg"><path d="m209.6 9.4c0-5 4-9.1 9.1-9.1 2.4 0 4.8 1 6.5 2.7s2.7 4 2.6 6.4c-.2 5-4.4 9-9.4 8.8-4.8-.1-8.6-4-8.8-8.8z" fill="#133c89"/><path d="m147.3 64.4v12h-25v-4.1c-4.1 3.1-9.1 4.8-14.2 4.9-4.8.1-9.5-1.4-13.4-4.4-3.7-2.8-5.7-7.2-5.6-11.9-.1-4.9 2.1-9.5 5.9-12.5 3.9-3.4 9-5 15.3-5 4.1.1 8.2 1 12 2.6v-3.2c.1-2.5-.9-4.8-2.7-6.5-2-1.8-4.6-2.7-7.2-2.6-3.6 0-7.1 1.4-9.6 4.1l-13.4-2.4c3.9-8.2 12.3-12.3 25.2-12.3 4.2-.1 8.4.5 12.4 1.7 2.8.8 5.3 2.3 7.4 4.4 1.6 1.7 2.7 3.7 3.4 5.9.7 2.1 1 5.6 1 10.4v19zm-25-7.2c-4-2.5-7.2-3.8-9.6-3.8-1.9 0-3.7.6-5.2 1.7-1.6 1.1-2.5 2.9-2.3 4.9 0 1.8.6 3.6 1.9 4.9 1.2 1.3 3 2.1 4.8 2 3.1 0 6.6-1.8 10.4-5.4z" fill="#133c89"/><path d="m152.9 76.4v-17.9h12.2c.1 2.4 1.4 4.6 3.4 5.8 2.4 1.5 5.1 2.3 7.9 2.2 2.2.1 4.4-.4 6.4-1.4 1.4-.7 2.2-2.1 2.3-3.6 0-1.4-.8-2.6-2.1-3.2-1.4-.8-4.1-1.5-8.2-2.2-8.5-1.4-14.5-3.4-18.2-6.2-3.6-2.5-5.7-6.6-5.6-11 0-4.3 1.9-8.3 5.3-10.9 3.5-2.9 8.2-4.4 14-4.4 4.5 0 9 .9 13.2 2.6v-1.9h11.9v15.1h-11.9c-1.1-3.6-4.9-5.4-11.4-5.4-4.8 0-7.2 1.3-7.2 4 0 1 .6 1.9 1.5 2.3 1 .5 3.5 1.1 7.6 1.8 4.9.7 9.7 1.9 14.4 3.3 3.1 1 5.7 2.9 7.7 5.5 2 2.7 3 5.9 2.9 9.2.1 4.8-1.9 9.4-5.5 12.5-3.6 3.3-8.8 4.9-15.5 4.9-6.2 0-10.4-1.3-12.7-3.8v2.6z" fill="#133c89"/><path d="m205.3 36.3v-11.9h24.5v40h7.8v12h-32.3v-12h7.9v-28.1z" fill="#133c89"/><path d="m246.1 76.4v-17.9h12.1c.1 2.4 1.4 4.6 3.4 5.8 2.4 1.5 5.2 2.3 8 2.2 2.2.1 4.4-.4 6.4-1.4 1.4-.7 2.2-2.1 2.3-3.6 0-1.4-.9-2.6-2.1-3.2-1.4-.8-4.1-1.5-8.2-2.2-8.4-1.4-14.5-3.4-18.2-6.2-3.6-2.5-5.7-6.6-5.6-11 0-4.2 1.9-8.3 5.3-10.9 3.5-2.9 8.2-4.4 14-4.4 4.5 0 9 .9 13.2 2.6v-1.9h11.9v15.1h-11.9c-1.1-3.6-4.9-5.4-11.4-5.4-4.8 0-7.2 1.3-7.2 4 0 1 .6 1.9 1.5 2.3 1 .5 3.5 1.1 7.5 1.8 4.9.7 9.7 1.9 14.4 3.3 3.1 1 5.7 2.9 7.7 5.5 1.9 2.7 3 5.9 2.9 9.2.1 4.8-1.9 9.4-5.5 12.5-3.6 3.3-8.8 4.9-15.5 4.9-6.2 0-10.5-1.3-12.8-3.8v2.6z" fill="#133c89"/><g fill="#009cdb"><path d="m4.4 115.8v-24.5h-4.2v-4.1h25.4v9.9h-4v-5.8h-12.3v9.7h10.6v4.1h-10.6v10.7h4.2v4.1h-13.3v-4.1z"/><path d="m31 115.9v-14.8h-3.5v-4h8v18.8h3.5v4h-11.5v-4zm-.6-26.5c0-.7.2-1.4.7-1.9 1.1-1 2.8-1 3.8 0 1.1 1 1.1 2.7.1 3.8 0 0 0 0-.1.1-1 1.1-2.7 1.1-3.8 0-.5-.6-.7-1.3-.7-2z"/><path d="m49.7 97.2v2.8c2.9-2.1 5.5-3.1 7.8-3.1 1.3-.1 2.6.3 3.7 1 .9.6 1.6 1.5 1.9 2.6.3 1.4.5 2.9.4 4.4v11.1h3.8v4h-8.3v-15c0-1.7-.3-2.9-.8-3.4s-1.2-.8-1.9-.8c-2 0-4.2 1-6.7 2.9v12.2h3.9v4h-12.2v-4h4v-14.8h-4v-4z"/><path d="m92.5 115.9v4h-7.8v-2.8c-1.9 2-4.5 3.1-7.2 3.1-2 0-3.9-.7-5.4-2s-2.3-3.2-2.3-5.2.9-4 2.4-5.3c1.6-1.4 3.7-2.1 5.9-2.1s4.4.7 6.2 1.9v-2.2c0-.9-.1-1.8-.3-2.7-.3-.7-.8-1.3-1.5-1.7-1-.5-2.1-.8-3.2-.8-2-.1-3.9.9-4.9 2.7l-4.3-1.2c1.9-3.5 5.2-5.3 9.8-5.3 1.5 0 3 .2 4.4.7 1.1.3 2 1 2.8 1.8.6.7 1 1.5 1.2 2.4.2 1.3.4 2.7.3 4v10.6h3.9zm-8.2-4.5c-1.6-1.4-3.7-2.2-5.8-2.3-1.1 0-2.2.3-3.1 1.1-.8.7-1.3 1.7-1.2 2.8 0 1 .4 2 1.1 2.7.8.8 1.9 1.2 3 1.1 2.3-.1 4.5-1 6.1-2.7z"/><path d="m102.9 97.2v2.8c2.9-2.1 5.5-3.1 7.9-3.1 1.3-.1 2.6.3 3.7 1 .9.6 1.6 1.5 1.9 2.6.3 1.5.5 2.9.4 4.4v11.1h3.8v4h-8.3v-15c0-1.7-.3-2.9-.8-3.4s-1.2-.8-1.9-.8c-2 0-4.2 1-6.7 2.9v12.2h3.9v4h-12.4v-4h4v-14.8h-4v-4z"/><path d="m144 97.2v8.6h-4c-.1-1.5-.8-2.9-2-3.8-1.1-.9-2.6-1.3-4-1.3-1.9-.1-3.7.7-4.9 2.1-1.3 1.6-2 3.6-1.9 5.6 0 2 .6 4 1.8 5.7 1.2 1.6 3.1 2.6 5.2 2.5 3 .1 5.7-1.7 6.8-4.5l3.7 1.7c-2 4.5-5.6 6.8-10.7 6.8-3.3.2-6.4-1.2-8.5-3.7-2-2.4-3.1-5.4-3.1-8.5-.1-3.2 1.1-6.3 3.4-8.5 2-2.1 4.9-3.3 7.8-3.4 2.3-.1 4.6.7 6.4 2.2v-1.6z"/><path d="m150.9 115.9v-14.8h-3.5v-4h8v18.8h3.5v4h-11.5v-4zm-.6-26.5c0-.7.3-1.4.8-1.9s1.3-.8 2-.8 1.4.3 1.9.8c1.1 1 1.1 2.7 0 3.8-.5.5-1.2.8-1.9.8s-1.4-.3-1.9-.8c-.6-.5-.9-1.2-.9-1.9z"/><path d="m184.8 115.9v4h-7.8v-2.8c-1.9 2-4.5 3.1-7.2 3.1-2 0-3.9-.7-5.4-2s-2.3-3.2-2.3-5.2.9-4 2.4-5.3c1.6-1.4 3.7-2.1 5.9-2.1s4.4.7 6.2 1.9v-2.2c0-.9-.1-1.8-.3-2.7-.3-.7-.8-1.3-1.5-1.7-1-.5-2.1-.8-3.2-.8-2-.1-3.9.9-4.9 2.7l-4.3-1.1c1.9-3.5 5.2-5.3 9.8-5.3 1.5 0 3 .2 4.4.7 1.1.3 2 1 2.8 1.8.6.7 1 1.5 1.2 2.4.3 1.3.4 2.7.3 4v10.5h3.9zm-8.2-4.5c-1.6-1.4-3.7-2.2-5.9-2.3-1.1 0-2.2.4-3.1 1.1-.8.7-1.3 1.7-1.2 2.8 0 1 .4 2 1.1 2.7.8.8 1.9 1.2 3 1.1 2.3-.1 4.5-1 6.1-2.7z"/><path d="m190.5 115.9v-24.7h-4v-4h8.5v28.8h3.5v4h-12v-4h4z"/></g><path d="m292.6 14.5h-1.9v-.6h4.4v.6h-1.9v5h-.6z" fill="#133c89"/><path d="m296.3 13.9h.6l2 3 2-3h.6v5.6h-.6v-4.5l-2 3-2-3v4.5h-.6z" fill="#133c89"/><path d="m83.4 38.7c0 19.3-13.3 38.6-41.8 38.6-28.1-.1-41.6-19.2-41.6-38.6 0-20 14-38.7 41.7-38.7 27.9 0 41.7 18.8 41.7 38.7zm-62.4.3c0 14.5 8.4 24.5 20.7 24.5 10.3 0 20.8-7.7 20.8-25 0-15.5-9.1-24.9-20.8-24.9-9.9.1-20.7 7.3-20.7 25.4z" fill="#133c89"/></svg>